# This file uses meters as units for non-parametric coordinates.

mtllib room1.mtl
g default
v 50.000000 0.000000 -99.999939
v 150.000000 0.000000 -99.999939
v 150.000000 0.000000 99.999939
v 50.000000 0.000000 99.999939
v 250.000000 0.000000 -99.999939
v 350.000000 0.000000 -99.999939
v 350.000000 0.000000 99.999939
v 250.000000 0.000000 99.999939
v -150.000000 0.000000 150.000000
v 150.000000 0.000000 150.000000
v 150.000000 300.000000 150.000000
v -150.000000 300.000000 150.000000
v -150.000000 0.000000 -150.000000
v -150.000000 300.000000 -150.000000
v 150.000000 0.000000 -150.000000
v 150.000000 300.000000 -150.000000
v 150.000000 200.000000 99.999939
v 150.000000 200.000000 -99.999939
v 250.000000 0.000000 150.000000
v 550.000000 0.000000 150.000000
v 550.000000 300.000000 150.000000
v 250.000000 300.000000 150.000000
v 250.000000 200.000000 -99.999939
v 250.000000 200.000000 99.999939
v 250.000000 300.000000 -150.000000
v 250.000000 0.000000 -150.000000
v 550.000000 0.000000 -150.000000
v 550.000000 300.000000 -150.000000
v -150.000000 0.000000 -99.999939
v -150.000000 200.000000 -99.999939
v -150.000000 200.000000 99.999939
v -150.000000 0.000000 99.999939
v -150.000000 0.000000 150.000000
v -150.000000 300.000000 150.000000
v -150.000000 300.000000 -150.000000
v -150.000000 0.000000 -150.000000
vt 0.541667 0.791667
vt 0.625000 0.791667
vt 0.625000 0.958333
vt 0.541667 0.958333
vt 0.375000 0.791667
vt 0.458333 0.791667
vt 0.458333 0.958333
vt 0.375000 0.958333
vt 0.375000 0.000000
vt 0.625000 0.000000
vt 0.625000 0.250000
vt 0.375000 0.250000
vt 0.625000 1.000000
vt 0.375000 1.000000
vt 0.375000 0.750000
vt 0.625000 0.750000
vt 0.833333 0.000000
vt 0.875000 0.000000
vt 0.875000 0.250000
vt 0.666667 0.000000
vt 0.666667 0.166667
vt 0.833333 0.166667
vt 0.625000 0.500000
vt 0.375000 0.500000
vt 0.375000 0.000000
vt 0.625000 0.000000
vt 0.625000 0.250000
vt 0.375000 0.250000
vt 0.166667 0.000000
vt 0.166667 0.166667
vt 0.333333 0.166667
vt 0.333333 0.000000
vt 0.125000 0.250000
vt 0.125000 0.000000
vt 0.375000 0.750000
vt 0.625000 0.750000
vt 0.625000 1.000000
vt 0.375000 1.000000
vt 0.875000 0.000000
vt 0.875000 0.250000
vt 0.625000 0.500000
vt 0.375000 0.500000
vt 0.458333 0.000000
vt 0.541667 0.000000
vt 0.541667 0.250000
vt 0.458333 0.250000
vt 0.458333 0.750000
vt 0.541667 0.750000
vt 0.541667 1.000000
vt 0.458333 1.000000
vt 0.541667 0.500000
vt 0.458333 0.500000
vt 0.833333 0.000000
vt 0.833333 0.166667
vt 0.666667 0.166667
vt 0.666667 0.000000
vt 0.625000 0.000000
vt 0.625000 0.250000
vt 0.875000 0.250000
vt 0.875000 0.000000
vn 0.000000 1.000000 0.000000
vn 0.000000 1.000000 0.000000
vn 0.000000 1.000000 0.000000
vn 0.000000 1.000000 0.000000
vn 0.000000 1.000000 0.000000
vn 0.000000 1.000000 0.000000
vn 0.000000 1.000000 0.000000
vn 0.000000 1.000000 0.000000
vn 0.000000 0.000000 -1.000000
vn 0.000000 0.000000 -1.000000
vn 0.000000 0.000000 -1.000000
vn 0.000000 0.000000 -1.000000
vn 0.000000 -1.000000 0.000000
vn 0.000000 -1.000000 0.000000
vn 0.000000 -1.000000 0.000000
vn 0.000000 -1.000000 0.000000
vn 0.000000 0.000000 1.000000
vn 0.000000 0.000000 1.000000
vn 0.000000 0.000000 1.000000
vn 0.000000 0.000000 1.000000
vn 0.000000 0.000000 -1.000000
vn 0.000000 0.000000 -1.000000
vn 0.000000 0.000000 -1.000000
vn 0.000000 0.000000 -1.000000
vn -1.000000 0.000000 0.000000
vn -1.000000 0.000000 0.000000
vn -1.000000 0.000000 0.000000
vn -1.000000 0.000000 0.000000
vn 0.000000 -1.000000 0.000000
vn 0.000000 -1.000000 0.000000
vn 0.000000 -1.000000 0.000000
vn 0.000000 -1.000000 0.000000
vn 0.000000 0.000000 1.000000
vn 0.000000 0.000000 1.000000
vn 0.000000 0.000000 1.000000
vn 0.000000 0.000000 1.000000
vn 0.000000 0.000000 -1.000000
vn 0.000000 0.000000 -1.000000
vn 0.000000 0.000000 -1.000000
vn 0.000000 0.000000 -1.000000
vn 0.000000 1.000000 0.000000
vn 0.000000 1.000000 0.000000
vn 0.000000 1.000000 0.000000
vn 0.000000 1.000000 0.000000
vn 0.000000 -1.000000 0.000000
vn 0.000000 -1.000000 0.000000
vn 0.000000 -1.000000 0.000000
vn 0.000000 -1.000000 0.000000
vn 0.000000 0.000000 1.000000
vn 0.000000 0.000000 1.000000
vn 0.000000 0.000000 1.000000
vn 0.000000 0.000000 1.000000
vn 0.000000 1.000000 0.000000
vn 0.000000 1.000000 0.000000
vn 0.000000 1.000000 0.000000
vn 0.000000 1.000000 0.000000
vn -1.000000 -0.000000 0.000000
vn -1.000000 -0.000000 0.000000
vn -1.000000 -0.000000 0.000000
vn -1.000000 -0.000000 0.000000
vn -1.000000 -0.000000 0.000000
vn -1.000000 -0.000000 0.000000
vn -1.000000 -0.000000 0.000000
vn -1.000000 -0.000000 0.000000
vn 1.000000 0.000000 0.000000
vn 1.000000 0.000000 0.000000
vn 1.000000 0.000000 0.000000
vn 1.000000 0.000000 0.000000
vn 1.000000 0.000000 0.000000
vn 1.000000 0.000000 0.000000
vn 1.000000 0.000000 0.000000
vn 1.000000 0.000000 0.000000
vn 0.000000 1.000000 0.000000
vn 0.000000 1.000000 0.000000
vn 0.000000 1.000000 0.000000
vn 0.000000 1.000000 0.000000
vn 1.000000 0.000000 0.000000
vn 1.000000 0.000000 0.000000
vn 1.000000 0.000000 0.000000
vn 1.000000 0.000000 0.000000
vn 1.000000 0.000000 0.000000
vn 1.000000 0.000000 0.000000
vn 1.000000 0.000000 0.000000
vn 1.000000 0.000000 0.000000
s 1
g polySurface1
usemtl initialShadingGroup
f 1/1/1 4/4/2 3/3/3 2/2/4
s 2
f 5/5/5 8/8/6 7/7/7 6/6/8
s off
f 9/9/9 12/12/10 11/11/11 10/10/12
f 11/11/13 12/12/14 14/24/15 16/23/16
f 13/15/17 15/16/18 16/23/19 14/24/20
f 19/25/21 22/28/22 21/27/23 20/26/24
f 20/26/25 21/27/26 28/40/27 27/39/28
f 21/27/29 22/28/30 25/42/31 28/41/32
f 25/42/33 26/35/34 27/36/35 28/41/36
f 3/43/37 17/46/38 24/45/39 8/44/40
f 2/47/41 3/50/42 8/49/43 5/48/44
f 17/46/45 18/52/46 23/51/47 24/45/48
f 2/47/49 5/48/50 23/51/51 18/52/52
s 1
f 1/1/1 2/2/4 15/16/53 13/15/54
f 1/1/1 13/15/54 9/14/55 4/4/2
f 4/4/2 9/14/55 10/13/56 3/3/3
s off
f 2/17/57 18/22/58 17/21/59 3/20/60 10/10/61 11/11/62 16/19/63 15/18/64
f 5/29/65 26/34/66 25/33/67 22/28/68 19/25/69 8/32/70 24/31/71 23/30/72
s 2
f 26/35/73 5/5/5 6/6/8 27/36/74
f 20/37/75 27/36/74 6/6/8 7/7/7
f 19/38/76 20/37/75 7/7/7 8/8/6
s off
f 29/53/77 36/60/78 35/59/79 34/58/80 33/57/81 32/56/82 31/55/83 30/54/84
